<svg width="35" height="35" viewBox="0 0 35 35" fill="none" xmlns="http://www.w3.org/2000/svg">
<path fill-rule="evenodd" clip-rule="evenodd" d="M6.99182 10.5C6.99182 4.70101 11.6971 0 17.5014 0C23.3057 0 28.011 4.70101 28.011 10.5C28.011 16.299 23.3057 21 17.5014 21C11.6971 21 6.99182 16.299 6.99182 10.5Z" fill="black"/>
<path fill-rule="evenodd" clip-rule="evenodd" d="M5.99508 26.0794C8.8413 24.8873 12.6378 24.5 17.5014 24.5C22.3551 24.5 26.1457 24.8857 28.9895 26.0717C32.0418 27.3446 33.9153 29.5073 34.9141 32.6527C35.285 33.8217 34.4075 35 33.1943 35H1.79764C0.58944 35 -0.282908 33.827 0.08512 32.6644C1.08085 29.5192 2.94774 27.3557 5.99508 26.0794Z" fill="black"/>
</svg>
