<svg width="35" height="35" viewBox="0 0 35 35" fill="none" xmlns="http://www.w3.org/2000/svg">
<path fill-rule="evenodd" clip-rule="evenodd" d="M6.98547 10.5C6.98547 4.70101 11.6865 0 17.4855 0C23.2844 0 27.9855 4.70101 27.9855 10.5C27.9855 16.299 23.2844 21 17.4855 21C11.6865 21 6.98547 16.299 6.98547 10.5Z" fill="white"/>
<path fill-rule="evenodd" clip-rule="evenodd" d="M5.98961 26.0794C8.83324 24.8873 12.6262 24.5 17.4855 24.5C22.3347 24.5 26.1219 24.8857 28.963 26.0717C32.0126 27.3446 33.8844 29.5073 34.8822 32.6527C35.2529 33.8217 34.3761 35 33.1641 35H1.796C0.588902 35 -0.28265 33.827 0.0850424 32.6644C1.07986 29.5192 2.94505 27.3557 5.98961 26.0794Z" fill="white"/>
</svg>
