<svg width="36" height="35" viewBox="0 0 36 35" fill="none" xmlns="http://www.w3.org/2000/svg">
<path fill-rule="evenodd" clip-rule="evenodd" d="M1.29572 12.5451L1.56072 13.0051L12.6158 32.1527L13.6983 32.7777L12.6233 32.1665L12.8896 32.6265C13.6558 33.9552 15.1471 34.8377 17.0983 34.9627C18.7946 35.0715 20.7246 34.5877 22.4571 33.5877C24.5246 32.394 26.3634 31.3327 26.3634 31.3327C26.9609 30.9877 27.1659 30.2227 26.8209 29.6252L23.1359 23.2427C22.7909 22.6452 22.0259 22.4402 21.4284 22.7852L19.3159 24.0039L11.9683 11.2763L14.0796 10.0576C14.6783 9.71257 14.8833 8.94756 14.5371 8.35006L10.852 1.96751C10.507 1.36876 9.74328 1.16376 9.14453 1.51001C9.14453 1.51001 7.30577 2.57127 5.2395 3.76503C3.50699 4.76503 2.12198 6.19504 1.36822 7.71755C0.500717 9.47132 0.520717 11.2038 1.28697 12.5313L1.29572 12.5451ZM18.2146 12.5001C20.9746 12.5001 23.2146 14.7401 23.2146 17.5001C23.2146 18.1901 23.7746 18.7501 24.4646 18.7501C25.1546 18.7501 25.7147 18.1901 25.7147 17.5001C25.7147 13.3613 22.3534 10.0001 18.2146 10.0001C17.5246 10.0001 16.9646 10.5601 16.9646 11.2501C16.9646 11.9401 17.5246 12.5001 18.2146 12.5001ZM18.2146 7.50005C23.7334 7.50005 28.2147 11.9813 28.2147 17.5001C28.2147 18.1901 28.7747 18.7501 29.4647 18.7501C30.1547 18.7501 30.7147 18.1901 30.7147 17.5001C30.7147 10.6013 25.1134 5.00004 18.2146 5.00004C17.5246 5.00004 16.9646 5.56004 16.9646 6.25004C16.9646 6.94005 17.5246 7.50005 18.2146 7.50005ZM18.2146 2.50002C26.4934 2.50002 33.2147 9.22132 33.2147 17.5001C33.2147 18.1901 33.7747 18.7501 34.4647 18.7501C35.1547 18.7501 35.7147 18.1901 35.7147 17.5001C35.7147 7.84131 27.8734 0 18.2146 0C17.5246 0 16.9646 0.560004 16.9646 1.25001C16.9646 1.94001 17.5246 2.50002 18.2146 2.50002Z" fill="white"/>
</svg>
