<svg width="32" height="31" viewBox="0 0 32 31" fill="none" xmlns="http://www.w3.org/2000/svg">
<path d="M26.4326 7.07639C26.4326 8.14226 25.5614 9.00632 24.4867 9.00632C23.412 9.00632 22.5408 8.14226 22.5408 7.07639C22.5408 6.01052 23.412 5.14647 24.4867 5.14647C25.5614 5.14647 26.4326 6.01052 26.4326 7.07639Z" fill="white"/>
<path fill-rule="evenodd" clip-rule="evenodd" d="M8.27048 15.4386C8.27048 11.1759 11.7541 7.7197 16.0543 7.7197C20.3511 7.7197 23.838 11.1759 23.838 15.4386C23.838 19.7029 20.3511 23.1591 16.0543 23.1591C11.7541 23.1591 8.27048 19.7029 8.27048 15.4386ZM10.9964 15.4402C10.9964 18.2085 13.261 20.4542 16.0543 20.4542C18.8475 20.4542 21.1088 18.2085 21.1088 15.4402C21.1088 12.6703 18.8475 10.4262 16.0543 10.4262C13.261 10.4262 10.9964 12.6703 10.9964 15.4402Z" fill="white"/>
<path fill-rule="evenodd" clip-rule="evenodd" d="M30.7971 5.31767C29.9862 3.24779 28.3351 1.61105 26.2448 0.811519C25.0362 0.361246 23.7585 0.119845 22.4653 0.0924515C20.8003 0.0205448 20.2729 0 16.0508 0C11.8287 0 11.2875 0 9.63636 0.0924515C8.34655 0.118133 7.06885 0.359534 5.86031 0.811519C3.76826 1.61105 2.1171 3.24779 1.30795 5.31767C0.853234 6.51612 0.609451 7.77963 0.583516 9.06025C0.509171 10.7073 0.486694 11.2294 0.486694 15.412C0.486694 19.5929 0.486694 20.1253 0.583516 21.7638C0.609451 23.0444 0.853234 24.3079 1.30795 25.5081C2.11883 27.5762 3.76999 29.213 5.86204 30.0142C7.06539 30.4799 8.34309 30.7436 9.63982 30.7846C11.3048 30.8566 11.8321 30.8788 16.0543 30.8788C20.2764 30.8788 20.8176 30.8788 22.4687 30.7846C23.7602 30.759 25.0379 30.5159 26.2482 30.0673C28.3385 29.2643 29.9897 27.6293 30.8006 25.5594C31.2553 24.361 31.4991 23.0975 31.525 21.8168C31.5994 20.1698 31.6218 19.6477 31.6218 15.4651C31.6218 11.2827 31.6218 10.7517 31.525 9.11332C31.5025 7.81558 31.2605 6.52982 30.7971 5.31767ZM28.6912 21.6371C28.6791 22.6232 28.4993 23.6008 28.1535 24.527C27.6262 25.8744 26.5525 26.9393 25.1936 27.4564C24.2686 27.7971 23.2934 27.9751 22.3062 27.9888C20.6637 28.0642 20.2003 28.083 15.9886 28.083C11.7734 28.083 11.3428 28.083 9.66921 27.9888C8.68543 27.9769 7.70684 27.7971 6.78357 27.4564C5.41942 26.9411 4.33882 25.8762 3.81149 24.527C3.47261 23.6128 3.28934 22.6455 3.27378 21.6696C3.19943 20.0431 3.18215 19.5843 3.18215 15.4137C3.18215 11.2414 3.18215 10.8151 3.27378 9.15613C3.28588 8.16998 3.46569 7.1941 3.81149 6.26787C4.33882 4.91705 5.41942 3.85386 6.78357 3.33681C7.70684 2.99783 8.68543 2.81806 9.66921 2.80436C11.3134 2.73074 11.7751 2.7102 15.9886 2.7102C20.202 2.7102 20.6343 2.7102 22.3062 2.80436C23.2934 2.81635 24.2686 2.99611 25.1936 3.33681C26.5525 3.85557 27.6262 4.92048 28.1535 6.26787C28.4924 7.18211 28.6757 8.14943 28.6912 9.12531C28.7656 10.7535 28.7846 11.2106 28.7846 15.3829C28.7846 19.5535 28.7846 20.0021 28.7103 21.6388H28.6912V21.6371Z" fill="white"/>
</svg>
