<svg xmlns="http://www.w3.org/2000/svg" xmlns:xlink="http://www.w3.org/1999/xlink" width="500" zoomAndPan="magnify" viewBox="0 0 375 83.999999" height="112" preserveAspectRatio="xMidYMid meet" version="1.0"><defs><g/><clipPath id="bdbcb43f08"><path d="M 75 12 L 110.550781 12 L 110.550781 63 L 75 63 Z M 75 12 " clip-rule="nonzero"/></clipPath><clipPath id="072c2777e4"><path d="M 50 74 L 61 74 L 61 83.042969 L 50 83.042969 Z M 50 74 " clip-rule="nonzero"/></clipPath><clipPath id="5db0d7eaef"><path d="M 29 0.71875 L 82 0.71875 L 82 18 L 29 18 Z M 29 0.71875 " clip-rule="nonzero"/></clipPath><clipPath id="d8aa4a904e"><path d="M 74 20 L 105 20 L 105 50 L 74 50 Z M 74 20 " clip-rule="nonzero"/></clipPath><clipPath id="95ac6be987"><path d="M 75.695312 17.609375 L 108.078125 23.582031 L 102.105469 55.964844 L 69.722656 49.992188 Z M 75.695312 17.609375 " clip-rule="nonzero"/></clipPath><clipPath id="4d2ce490e7"><path d="M 75.695312 17.609375 L 108.078125 23.582031 L 102.105469 55.964844 L 69.722656 49.992188 Z M 75.695312 17.609375 " clip-rule="nonzero"/></clipPath></defs><path fill="#d8ff02" d="M 39.863281 64.109375 C 42.246094 67.933594 45.867188 70.835938 50.128906 72.339844 L 60.421875 72.339844 C 64.683594 70.835938 68.304688 67.933594 70.683594 64.109375 Z M 39.863281 64.109375 " fill-opacity="1" fill-rule="evenodd"/><path fill="#d8ff02" d="M 38.199219 50.210938 L 72.351562 50.210938 L 72.351562 58.054688 L 38.199219 58.054688 Z M 38.199219 50.210938 " fill-opacity="1" fill-rule="evenodd"/><path fill="#d8ff02" d="M 38.199219 36.414062 L 72.351562 36.414062 L 72.351562 44.257812 L 38.199219 44.257812 Z M 38.199219 36.414062 " fill-opacity="1" fill-rule="evenodd"/><path fill="#d8ff02" d="M 38.199219 30.492188 L 72.351562 30.492188 L 72.351562 22.648438 L 64.40625 22.648438 C 63.890625 21.296875 62.917969 20.167969 61.65625 19.449219 L 48.894531 19.449219 C 47.632812 20.167969 46.660156 21.296875 46.140625 22.648438 L 38.199219 22.648438 Z M 38.199219 30.492188 " fill-opacity="1" fill-rule="evenodd"/><g clip-path="url(#bdbcb43f08)"><path fill="#ffffff" d="M 75.667969 60.480469 L 75.667969 22.648438 L 80.9375 19.539062 L 88.15625 15.269531 L 93.316406 12.222656 L 98.476562 15.269531 L 105.28125 19.292969 L 110.550781 22.402344 L 110.550781 42.402344 L 105.28125 45.515625 L 94.289062 52.007812 L 80.9375 59.679688 L 75.667969 62.707031 Z M 75.667969 60.480469 " fill-opacity="1" fill-rule="evenodd"/></g><g clip-path="url(#072c2777e4)"><path fill="#ffffff" d="M 55.273438 83.035156 L 60.109375 74.703125 L 50.4375 74.703125 Z M 55.273438 83.035156 " fill-opacity="1" fill-rule="evenodd"/></g><g clip-path="url(#5db0d7eaef)"><path fill="#d8ff02" d="M 50.722656 14.246094 L 50.808594 14.246094 C 49.613281 11.730469 47.769531 9.625 45.53125 8.101562 C 42.9375 6.339844 39.808594 5.355469 36.519531 5.410156 C 36.070312 6.925781 34.664062 8.03125 32.996094 8.03125 C 30.96875 8.03125 29.328125 6.394531 29.328125 4.378906 C 29.328125 2.363281 30.96875 0.726562 32.996094 0.726562 C 34.355469 0.726562 35.542969 1.464844 36.175781 2.558594 C 40.179688 2.429688 44 3.601562 47.148438 5.742188 C 50.15625 7.785156 52.554688 10.714844 53.929688 14.246094 L 56.617188 14.246094 C 57.992188 10.714844 60.390625 7.785156 63.398438 5.742188 C 66.550781 3.601562 70.371094 2.429688 74.371094 2.558594 C 75.003906 1.464844 76.191406 0.726562 77.550781 0.726562 C 79.578125 0.726562 81.222656 2.363281 81.222656 4.378906 C 81.222656 6.394531 79.578125 8.03125 77.550781 8.03125 C 75.886719 8.03125 74.476562 6.925781 74.03125 5.410156 C 70.742188 5.355469 67.609375 6.339844 65.019531 8.101562 C 62.777344 9.625 60.9375 11.730469 59.738281 14.246094 L 59.828125 14.246094 C 60.835938 14.246094 61.660156 15.066406 61.660156 16.070312 C 61.660156 17.074219 60.835938 17.894531 59.828125 17.894531 L 50.722656 17.894531 C 49.714844 17.894531 48.890625 17.074219 48.890625 16.070312 C 48.890625 15.066406 49.714844 14.246094 50.722656 14.246094 Z M 50.722656 14.246094 " fill-opacity="1" fill-rule="evenodd"/></g><path fill="#ffffff" d="M 34.878906 60.480469 L 34.878906 22.648438 L 29.613281 19.539062 L 22.390625 15.269531 L 17.230469 12.222656 L 12.074219 15.269531 L 5.265625 19.292969 L 0 22.402344 L 0 42.402344 L 5.265625 45.515625 L 16.257812 52.007812 L 29.613281 59.679688 L 34.878906 62.707031 Z M 34.878906 60.480469 " fill-opacity="1" fill-rule="evenodd"/><g clip-path="url(#d8aa4a904e)"><g clip-path="url(#95ac6be987)"><g clip-path="url(#4d2ce490e7)"><path fill="#000000" d="M 93.46875 25.25 L 104.609375 39.875 L 89.050781 49.199219 L 90.226562 42.835938 L 83.296875 41.582031 C 69.339844 39.007812 76.238281 20.882812 76.238281 20.882812 C 76.238281 20.882812 75.246094 28.871094 84.339844 30.546875 L 92.214844 31.988281 Z M 93.46875 25.25 " fill-opacity="1" fill-rule="nonzero"/></g></g></g><g fill="#ffffff" fill-opacity="1"><g transform="translate(117.640234, 59.489998)"><g><path d="M 18.171875 -9.34375 L 18.171875 -15.125 C 18.171875 -16.050781 17.640625 -16.515625 16.578125 -16.515625 L 10.484375 -16.515625 C 7.347656 -16.515625 5.132812 -17.203125 3.84375 -18.578125 C 2.550781 -19.953125 1.90625 -21.929688 1.90625 -24.515625 L 1.90625 -32.90625 C 1.90625 -38.15625 5 -40.78125 11.1875 -40.78125 L 19.890625 -40.78125 C 26.066406 -40.78125 29.15625 -38.15625 29.15625 -32.90625 L 29.15625 -28.015625 L 18.046875 -28.015625 L 18.046875 -31.453125 C 18.046875 -32.378906 17.515625 -32.84375 16.453125 -32.84375 L 14.609375 -32.84375 C 13.554688 -32.84375 13.03125 -32.378906 13.03125 -31.453125 L 13.03125 -25.40625 C 13.03125 -24.476562 13.554688 -24.015625 14.609375 -24.015625 L 20.578125 -24.015625 C 23.710938 -24.015625 25.945312 -23.359375 27.28125 -22.046875 C 28.613281 -20.734375 29.28125 -18.804688 29.28125 -16.265625 L 29.28125 -7.875 C 29.28125 -2.625 26.191406 0 20.015625 0 L 11.375 0 C 5.144531 0 2.03125 -2.625 2.03125 -7.875 L 2.03125 -12.765625 L 13.15625 -12.765625 L 13.15625 -9.34375 C 13.15625 -8.40625 13.679688 -7.9375 14.734375 -7.9375 L 16.578125 -7.9375 C 17.640625 -7.9375 18.171875 -8.40625 18.171875 -9.34375 Z M 18.171875 -9.34375 "/></g></g></g><g fill="#ffffff" fill-opacity="1"><g transform="translate(148.825935, 59.489998)"><g><path d="M 18.609375 -23.765625 L 14.609375 -23.765625 L 14.609375 -9.34375 C 14.609375 -8.40625 15.140625 -7.9375 16.203125 -7.9375 L 18.546875 -7.9375 L 18.546875 0 L 13.15625 0 C 6.925781 0 3.8125 -2.625 3.8125 -7.875 L 3.8125 -23.765625 L 0.3125 -23.765625 L 0.3125 -31.703125 L 3.8125 -31.703125 L 3.8125 -37.921875 L 14.609375 -37.921875 L 14.609375 -31.703125 L 18.609375 -31.703125 Z M 18.609375 -23.765625 "/></g></g></g><g fill="#ffffff" fill-opacity="1"><g transform="translate(168.070874, 59.489998)"><g><path d="M 20.015625 -32.015625 L 20.96875 -32.015625 L 20.96875 -22.609375 L 17.34375 -22.609375 C 14.675781 -22.609375 13.34375 -21.171875 13.34375 -18.296875 L 13.34375 0 L 2.546875 0 L 2.546875 -31.703125 L 13.15625 -31.703125 L 13.15625 -26.8125 C 13.488281 -28.414062 14.25 -29.679688 15.4375 -30.609375 C 16.625 -31.546875 18.148438 -32.015625 20.015625 -32.015625 Z M 20.015625 -32.015625 "/></g></g></g><g fill="#ffffff" fill-opacity="1"><g transform="translate(189.348288, 59.489998)"><g><path d="M 2.34375 -34.875 L 2.34375 -42.5 L 13.53125 -42.5 L 13.53125 -34.875 Z M 13.34375 0 L 2.546875 0 L 2.546875 -31.703125 L 13.34375 -31.703125 Z M 13.34375 0 "/></g></g></g><g fill="#ffffff" fill-opacity="1"><g transform="translate(205.226957, 59.489998)"><g><path d="M 10.734375 -31.703125 L 14.609375 -11.375 L 18.421875 -31.703125 L 29.15625 -31.703125 L 21.03125 0 L 8.125 0 L 0 -31.703125 Z M 10.734375 -31.703125 "/></g></g></g><g fill="#ffffff" fill-opacity="1"><g transform="translate(234.380182, 59.489998)"><g><path d="M 11.25 -31.703125 L 19 -31.703125 C 25.21875 -31.703125 28.328125 -29.078125 28.328125 -23.828125 L 28.328125 -13.03125 L 12.140625 -13.03125 L 12.140625 -8.828125 C 12.140625 -7.898438 12.664062 -7.4375 13.71875 -7.4375 L 16.515625 -7.4375 C 17.578125 -7.4375 18.109375 -7.941406 18.109375 -8.953125 L 18.109375 -10.734375 L 28.328125 -10.734375 L 28.328125 -7.875 C 28.328125 -2.625 25.21875 0 19 0 L 11.25 0 C 5.019531 0 1.90625 -2.625 1.90625 -7.875 L 1.90625 -23.828125 C 1.90625 -29.078125 5.019531 -31.703125 11.25 -31.703125 Z M 12.140625 -18.875 L 18.109375 -18.875 L 18.109375 -22.875 C 18.109375 -23.800781 17.578125 -24.265625 16.515625 -24.265625 L 13.71875 -24.265625 C 12.664062 -24.265625 12.140625 -23.800781 12.140625 -22.875 Z M 12.140625 -18.875 "/></g></g></g><g fill="#d8ff02" fill-opacity="1"><g transform="translate(264.286359, 59.489998)"><g><path d="M 21.46875 -40.78125 L 32.40625 -40.78125 L 32.40625 0 L 21.46875 0 L 21.46875 -16.140625 L 13.46875 -16.140625 L 13.46875 0 L 2.546875 0 L 2.546875 -40.78125 L 13.46875 -40.78125 L 13.46875 -24.078125 L 21.46875 -24.078125 Z M 21.46875 -40.78125 "/></g></g></g><g fill="#d8ff02" fill-opacity="1"><g transform="translate(299.21943, 59.489998)"><g><path d="M 2.34375 -34.875 L 2.34375 -42.5 L 13.53125 -42.5 L 13.53125 -34.875 Z M 13.34375 0 L 2.546875 0 L 2.546875 -31.703125 L 13.34375 -31.703125 Z M 13.34375 0 "/></g></g></g><g fill="#d8ff02" fill-opacity="1"><g transform="translate(315.098099, 59.489998)"><g><path d="M 10.734375 -31.703125 L 14.609375 -11.375 L 18.421875 -31.703125 L 29.15625 -31.703125 L 21.03125 0 L 8.125 0 L 0 -31.703125 Z M 10.734375 -31.703125 "/></g></g></g><g fill="#d8ff02" fill-opacity="1"><g transform="translate(344.251324, 59.489998)"><g><path d="M 11.25 -31.703125 L 19 -31.703125 C 25.21875 -31.703125 28.328125 -29.078125 28.328125 -23.828125 L 28.328125 -13.03125 L 12.140625 -13.03125 L 12.140625 -8.828125 C 12.140625 -7.898438 12.664062 -7.4375 13.71875 -7.4375 L 16.515625 -7.4375 C 17.578125 -7.4375 18.109375 -7.941406 18.109375 -8.953125 L 18.109375 -10.734375 L 28.328125 -10.734375 L 28.328125 -7.875 C 28.328125 -2.625 25.21875 0 19 0 L 11.25 0 C 5.019531 0 1.90625 -2.625 1.90625 -7.875 L 1.90625 -23.828125 C 1.90625 -29.078125 5.019531 -31.703125 11.25 -31.703125 Z M 12.140625 -18.875 L 18.109375 -18.875 L 18.109375 -22.875 C 18.109375 -23.800781 17.578125 -24.265625 16.515625 -24.265625 L 13.71875 -24.265625 C 12.664062 -24.265625 12.140625 -23.800781 12.140625 -22.875 Z M 12.140625 -18.875 "/></g></g></g></svg>