<svg width="32" height="25" viewBox="0 0 32 25" fill="none" xmlns="http://www.w3.org/2000/svg">
<path fill-rule="evenodd" clip-rule="evenodd" d="M28.2611 6.37666C28.2813 6.64685 28.2813 6.91549 28.2813 7.18414C28.2813 15.4056 21.9718 24.8792 10.4409 24.8792C6.88837 24.8792 3.58805 23.8587 0.810791 22.0863C1.31518 22.1434 1.80089 22.1635 2.32552 22.1635C5.25689 22.1635 7.95475 21.1815 10.1109 19.5063C7.35384 19.4492 5.04361 17.6582 4.24655 15.1941C4.63419 15.2512 5.02338 15.2898 5.43125 15.2898C5.99323 15.2898 6.55834 15.2126 7.08296 15.0783C4.20763 14.5009 2.05464 11.9981 2.05464 8.97511V8.89791C2.89062 9.35955 3.86048 9.64827 4.88794 9.68687C3.19886 8.57214 2.092 6.66538 2.092 4.50849C2.092 3.35362 2.4018 2.29448 2.9451 1.3712C6.03215 5.14305 10.6728 7.60872 15.8755 7.87891C15.779 7.41573 15.7199 6.93556 15.7199 6.45386C15.7199 3.02631 18.5158 0.234863 21.9905 0.234863C23.7963 0.234863 25.4262 0.985218 26.572 2.19876C27.9887 1.92857 29.3461 1.40826 30.5511 0.696501C30.0856 2.14009 29.0939 3.35362 27.7941 4.12405C29.0566 3.98818 30.2802 3.64234 31.4042 3.16063C30.5511 4.39269 29.4847 5.49044 28.2611 6.37666Z" fill="white"/>
</svg>
