<svg width="39" height="29" viewBox="0 0 39 29" fill="none" xmlns="http://www.w3.org/2000/svg">
<path d="M37.5545 4.40309C37.1158 2.68158 35.8311 1.32424 34.2017 0.860755C31.2249 0 19.3176 0 19.3176 0C19.3176 0 7.41038 0 4.43357 0.827649C2.83549 1.29113 1.51942 2.68158 1.08074 4.40309C0.297363 7.54816 0.297363 14.07 0.297363 14.07C0.297363 14.07 0.297363 20.625 1.08074 23.737C1.51942 25.4585 2.80415 26.8158 4.43357 27.2793C7.44171 28.1401 19.3176 28.1401 19.3176 28.1401C19.3176 28.1401 31.2249 28.1401 34.2017 27.3124C35.8311 26.8489 37.1158 25.4916 37.5545 23.7701C38.3379 20.625 38.3379 14.1031 38.3379 14.1031C38.3379 14.1031 38.3692 7.54816 37.5545 4.40309Z" fill="white"/>
<path d="M15.526 8.04492V20.0955L25.4278 14.0702L15.526 8.04492Z" fill="black"/>
<path d="M15.526 8.04492V20.0955L25.4278 14.0702L15.526 8.04492Z" fill="black"/>
</svg>
